<svg fill="#ffffff" height="256px" width="256px" version="1.1" xmlns="http://www.w3.org/2000/svg" viewBox="-45.62 -45.62 547.40 547.40" xmlns:xlink="http://www.w3.org/1999/xlink" enable-background="new 0 0 456.163 456.163" stroke="#ffffff" transform="rotate(0)matrix(-1, 0, 0, 1, 0, 0)" stroke-width="0.0045616300000000005"><g id="SVGRepo_bgCarrier" stroke-width="0" transform="translate(0,0), scale(1)"><rect x="-45.62" y="-45.62" width="547.40" height="547.40" rx="273.7" fill="#4f46e5" strokewidth="0"></rect></g><g id="SVGRepo_tracerCarrier" stroke-linecap="round" stroke-linejoin="round" stroke="#CCCCCC" stroke-width="7.298608"></g><g id="SVGRepo_iconCarrier"> <path d="m455.105,177.383l-50.341-100.606c-1.188-2.372-3.268-4.175-5.784-5.013-2.516-0.838-5.262-0.642-7.634,0.545l-10.73,5.37c-42.59,21.311-61.571,71.266-45.318,114.925l-199.892,100.017c-25.201-39.181-76.564-53.937-119.148-32.626l-10.73,5.37c-4.939,2.471-6.939,8.479-4.469,13.418l50.341,100.602c1.753,3.502 5.283,5.526 8.95,5.526 1.504,0 3.03-0.341 4.467-1.059l155.767-77.94c5.103,6.764 12.114,11.832 20.326,14.566 1.109,0.369 2.225,0.691 3.348,0.966v43.465h-30c-5.522,0-10,4.477-10,10s4.478,10 10,10h80c5.522,0 10-4.477 10-10s-4.478-10-10-10h-30v-43.461c3.046-0.748 6.032-1.834 8.905-3.272 10.092-5.05 17.614-13.727 21.18-24.434 2.735-8.213 2.881-16.863 0.526-25.003l155.768-77.936c2.372-1.187 4.176-3.268 5.014-5.784s0.641-5.264-0.546-7.636zm-403.722,157.277l-27.963-55.885 1.787-.895c32.715-16.37 72.035-5.591 92.183,23.754l-66.007,33.026zm13.426,26.832l-4.476-8.941 151.869-75.995c-0.337,3.627-0.209,7.315 0.417,10.977l-147.81,73.959zm324.756-265.928l1.788-.895 27.966,55.889-66.006,33.028c-11.41-33.718 3.536-71.652 36.252-88.022zm-114.198,191.859c-1.878,5.638-5.839,10.208-11.153,12.867-5.313,2.659-11.346,3.09-16.984,1.212s-10.208-5.839-12.867-11.153c-5.49-10.971-1.03-24.363 9.939-29.853 3.187-1.594 6.578-2.35 9.92-2.35 8.165,0 16.038,4.506 19.933,12.291 2.659,5.316 3.088,11.348 1.212,16.986zm9.566-36.077c-2.555-2.695-5.43-5.008-8.533-6.912l151.866-75.988 4.478,8.945-147.811,73.955z"></path> </g></svg>